<?xml version="1.0" standalone="no"?>
<!DOCTYPE svg PUBLIC "-//W3C//DTD SVG 20010904//EN"
 "http://www.w3.org/TR/2001/REC-SVG-20010904/DTD/svg10.dtd">
<svg version="1.0" xmlns="http://www.w3.org/2000/svg"
 width="367.000000pt" height="80.000000pt" viewBox="0 0 367.000000 80.000000"
 preserveAspectRatio="xMidYMid meet">
<metadata>
Created by potrace 1.16, written by Peter Selinger 2001-2019
</metadata>
<g transform="translate(0.000000,80.000000) scale(0.100000,-0.100000)"
fill="#1252a0" stroke="none">
<path d="M3051 787 c-14 -6 -29 -25 -34 -41 -21 -62 66 -113 112 -67 30 30 27
75 -5 100 -31 24 -40 25 -73 8z"/>
<path d="M2200 654 l0 -135 -36 27 c-30 23 -46 28 -97 28 -135 1 -223 -96
-221 -242 3 -129 78 -221 189 -230 68 -6 96 1 134 34 l31 26 0 -26 c0 -25 3
-26 50 -26 l50 0 0 340 0 340 -50 0 -50 0 0 -136z m-55 -196 c101 -79 50 -268
-72 -268 -91 0 -150 115 -109 214 31 73 122 101 181 54z"/>
<path d="M2840 450 l0 -340 50 0 50 0 0 340 0 340 -50 0 -50 0 0 -340z"/>
<path d="M215 692 c-106 -35 -195 -159 -211 -295 -20 -170 105 -341 280 -384
163 -40 344 41 411 184 36 75 32 166 -7 176 -35 9 -54 -8 -77 -72 -28 -78 -59
-114 -128 -147 -106 -52 -219 -32 -293 52 -61 70 -81 153 -55 239 40 141 199
197 304 109 62 -52 64 -157 3 -204 -24 -19 -35 -21 -94 -15 -65 6 -67 5 -84
-21 -27 -40 -4 -74 61 -92 77 -22 147 -3 206 57 94 93 94 238 2 341 -75 83
-199 112 -318 72z"/>
<path d="M1043 563 c-52 -18 -115 -86 -131 -141 -44 -146 32 -292 166 -321 90
-19 191 17 231 83 28 44 27 52 -10 65 -45 16 -54 14 -68 -13 -17 -31 -51 -46
-106 -46 -53 0 -100 36 -114 88 l-10 32 170 0 169 0 0 43 c0 165 -142 265
-297 210z m164 -107 c13 -15 23 -36 23 -47 0 -18 -8 -19 -110 -19 -127 0 -135
7 -75 67 33 33 38 35 87 31 40 -4 57 -11 75 -32z"/>
<path d="M1574 566 c-17 -8 -41 -24 -53 -37 l-21 -23 0 33 0 32 -52 -3 -53 -3
-3 -227 -2 -228 54 0 55 0 3 161 3 161 28 24 c39 33 99 33 132 -1 24 -24 25
-28 25 -185 l0 -160 56 0 56 0 -4 178 c-4 206 -12 231 -88 270 -50 25 -91 27
-136 8z"/>
<path d="M2495 568 c-47 -17 -96 -58 -111 -94 -18 -43 -19 -41 19 -49 17 -4
39 -8 47 -11 9 -2 20 7 28 25 33 75 172 63 172 -15 0 -29 -21 -39 -106 -49
-75 -9 -138 -36 -159 -68 -28 -44 -30 -91 -5 -136 28 -49 74 -73 141 -73 51 1
80 12 117 45 l22 20 0 -26 c0 -26 2 -27 50 -27 l50 0 0 145 c0 183 -10 235
-55 274 -54 47 -141 63 -210 39z m152 -295 c-7 -62 -40 -93 -102 -93 -51 0
-75 19 -75 60 0 37 28 57 100 69 88 14 83 16 77 -36z"/>
<path d="M3340 571 c-53 -17 -92 -43 -110 -74 -28 -45 -25 -65 8 -73 15 -3 35
-8 44 -10 10 -3 19 3 23 15 24 77 157 81 179 5 10 -32 -15 -45 -111 -61 -47
-7 -98 -21 -113 -30 -84 -49 -78 -183 11 -229 23 -12 50 -15 95 -12 53 3 69 9
93 32 l28 27 7 -25 c6 -23 11 -26 51 -26 l45 0 0 168 c0 154 -2 171 -22 212
-16 30 -36 50 -62 64 -43 21 -126 30 -166 17z m150 -271 c0 -33 -26 -86 -51
-104 -36 -24 -104 -21 -123 6 -36 52 -11 87 75 103 92 18 99 18 99 -5z"/>
<path d="M3030 341 l0 -231 53 0 54 0 -1 228 -1 227 -52 3 -53 3 0 -230z"/>
</g>
</svg>
